<?xml version="1.0" encoding="UTF-8"?>
<svg id="Layer_2" data-name="Layer 2" xmlns="http://www.w3.org/2000/svg" width="1199" height="163" viewBox="0 0 1199 163">
  <g id="Layer_1-2" data-name="Layer 1">
    <path d="M1018.8,0h-32.54v130.37h-120.07c-24.12,0-43.67-19.64-43.67-43.86V0h-32.54v130.37h-120.07c-24.12,0-43.67-19.64-43.67-43.86V0H.43v32.68h174.24c8.9,0,16.08,7.24,16.08,16.15v.36c0,8.93-7.21,16.15-16.08,16.15H0v32.68h174.66c8.9,0,16.08,7.24,16.08,16.15s-7.21,16.15-16.08,16.15H0v32.68h223.28v-65h119.97c24.12,0,43.67,19.64,43.67,43.86v21.14h811.64v-32.68h-163.69c-8.9,0-16.08-7.24-16.08-16.15s7.21-16.15,16.08-16.15h164.12v-32.68h-164.12c-8.9,0-16.08-7.24-16.08-16.15v-.36c0-8.93,7.21-16.15,16.08-16.15h164.12V0h-180.2ZM593.68,32.68v32.68h-158.11c-8.89,0-16.08-7.24-16.08-16.15v-.36c0-8.93,7.21-16.15,16.08-16.15h158.11v-.02ZM386.95,65.36h-163.65v-32.68h131.11c17.98,0,32.54,14.64,32.54,32.68ZM419.49,114.22c0-8.94,7.21-16.15,16.08-16.15h158.11v32.32h-158.11c-8.89,0-16.08-7.24-16.08-16.15v-.02Z" style="fill: #fff;"/>
  </g>
</svg>